<?xml version="1.0" encoding="UTF-8" standalone="no"?>
<!-- Created with Inkscape (http://www.inkscape.org/) -->

<svg
   xmlns:dc="http://purl.org/dc/elements/1.1/"
   xmlns:cc="http://creativecommons.org/ns#"
   xmlns:rdf="http://www.w3.org/1999/02/22-rdf-syntax-ns#"
   xmlns:svg="http://www.w3.org/2000/svg"
   xmlns="http://www.w3.org/2000/svg"
   xmlns:sodipodi="http://sodipodi.sourceforge.net/DTD/sodipodi-0.dtd"
   xmlns:inkscape="http://www.inkscape.org/namespaces/inkscape"
   width="744.09448819"
   height="1052.3622047"
   id="svg2"
   version="1.1"
   inkscape:version="0.48.0 r9654"
   sodipodi:docname="hurricane-logo.svg"
   inkscape:export-filename="/Users/icheishvili/Desktop/hurricane-logo.png"
   inkscape:export-xdpi="90"
   inkscape:export-ydpi="90">
  <defs
     id="defs4" />
  <sodipodi:namedview
     id="base"
     pagecolor="#ffffff"
     bordercolor="#666666"
     borderopacity="1.0"
     inkscape:pageopacity="0.0"
     inkscape:pageshadow="2"
     inkscape:zoom="0.5"
     inkscape:cx="138.15789"
     inkscape:cy="482.10118"
     inkscape:document-units="px"
     inkscape:current-layer="layer1"
     showgrid="false"
     inkscape:window-width="1436"
     inkscape:window-height="856"
     inkscape:window-x="4"
     inkscape:window-y="0"
     inkscape:window-maximized="0" />
  <metadata
     id="metadata7">
    <rdf:RDF>
      <cc:Work
         rdf:about="">
        <dc:format>image/svg+xml</dc:format>
        <dc:type
           rdf:resource="http://purl.org/dc/dcmitype/StillImage" />
        <dc:title></dc:title>
      </cc:Work>
    </rdf:RDF>
  </metadata>
  <g
     inkscape:label="Layer 1"
     inkscape:groupmode="layer"
     id="layer1">
    <g
       id="g3911"
       transform="translate(248,512)">
      <path
         style="fill:#000000;fill-opacity:1;stroke:#000000;stroke-width:1px;stroke-linecap:butt;stroke-linejoin:miter;stroke-opacity:1"
         d="M 146.40711,-18.349316 C 176.74222,-19.023746 415.76888,33.202721 466.68002,126.58247 513.34133,169.57842 313.40316,340.28282 252.5962,339.93528 270.60987,249.68001 231.37376,48.082384 142.45975,6.6506837 124.24245,-19.563226 109.28666,-15.856906 146.40711,-18.349316 z"
         id="path3895"
         inkscape:connector-curvature="0"
         sodipodi:nodetypes="ccccc" />
      <path
         sodipodi:nodetypes="ccccc"
         inkscape:connector-curvature="0"
         id="path3901"
         d="m 132.73895,-37.737633 c 14.58348,-26.60819 179.32626,-207.498117 285.65107,-204.898587 60.56624,-18.9119 108.4315,239.591837 77.72704,292.078437 -69.15652,-60.72793 -263.36324,-127.54728 -343.70115,-71.26134 -31.81056,2.66969 -36.07869,17.47495 -19.67696,-15.91851 z"
         style="fill:#000000;fill-opacity:1;stroke:#000000;stroke-width:1px;stroke-linecap:butt;stroke-linejoin:miter;stroke-opacity:1" />
      <path
         style="fill:#000000;fill-opacity:1;stroke:#000000;stroke-width:1px;stroke-linecap:butt;stroke-linejoin:miter;stroke-opacity:1"
         d="M 108.36634,-34.056888 C 92.61472,-59.990648 18.33084,-293.10704 73.7445,-383.88726 c 13.90493,-61.90786 261.70836,25.89148 291.81086,78.72562 -87.17019,29.52734 -242.1408,164.30562 -233.5647,262.023259 -13.59326,28.883598 -2.9056,39.9825398 -23.62432,9.081493 z"
         id="path3903"
         inkscape:connector-curvature="0"
         sodipodi:nodetypes="ccccc" />
      <path
         sodipodi:nodetypes="ccccc"
         inkscape:connector-curvature="0"
         id="path3905"
         d="m 99.550771,-12.410553 c -30.335099,0.67442 -269.361761,-51.55205 -320.272901,-144.931787 -46.66132,-42.99596 153.276848,-213.70035 214.0838125,-213.35281 -18.0136705,90.25527 21.2224405,291.852889 110.1364475,333.284589 18.2173,26.213907 33.17309,22.507593 -3.947359,25.000008 z"
         style="fill:#000000;fill-opacity:1;stroke:#000000;stroke-width:1px;stroke-linecap:butt;stroke-linejoin:miter;stroke-opacity:1" />
      <path
         style="fill:#000000;fill-opacity:1;stroke:#000000;stroke-width:1px;stroke-linecap:butt;stroke-linejoin:miter;stroke-opacity:1"
         d="M 111.89619,6.6602976 C 97.312707,33.268478 -67.430079,214.15841 -173.75487,211.55888 -234.32112,230.47079 -282.18638,-28.032942 -251.48192,-80.519552 -182.3254,-19.791612 11.881315,47.027728 92.219225,-9.2582123 124.02979,-11.927902 128.29792,-26.733152 111.89619,6.6602976 z"
         id="path3907"
         inkscape:connector-curvature="0"
         sodipodi:nodetypes="ccccc" />
      <path
         sodipodi:nodetypes="ccccc"
         inkscape:connector-curvature="0"
         id="path3909"
         d="M 136.38519,3.1594459 C 152.13681,29.0932 226.42069,262.2096 171.00704,352.98981 c -13.90493,61.90786 -261.708354,-25.89147 -291.81086,-78.72562 87.170196,-29.52733 242.1408,-164.30561 233.5647,-262.02325 13.59326,-28.883596 2.9056,-39.982536 23.62431,-9.0814941 z"
         style="fill:#000000;fill-opacity:1;stroke:#000000;stroke-width:1px;stroke-linecap:butt;stroke-linejoin:miter;stroke-opacity:1" />
    </g>
  </g>
</svg>
